<?xml version="1.0" encoding="iso-8859-1"?>
<!-- Generator: Adobe Illustrator 30.1.0, SVG Export Plug-In . SVG Version: 9.03 Build 0)  -->
<svg version="1.1" id="Layer_1" xmlns="http://www.w3.org/2000/svg" xmlns:xlink="http://www.w3.org/1999/xlink" x="0px" y="0px"
	 viewBox="0 0 800 300" style="enable-background:new 0 0 800 300;" xml:space="preserve">
<g>
	<path d="M223,241.274h9v-7l2-4l3-1h12v4h-10l-2,2v6h12v4h-12v26h-4v-26h-10V241.274z M311,266.274h-1l-4,4l-5,1l-5-1l-5-2l-3-5
		l-1-7v-1l1-6l3-5l5-3l5-1l6,2l3,4h1v-5h5v24l1,1h2v5h-3c-2.111,0.65-4.35-0.534-5-2.646
		C310.764,267.862,310.764,267.041,311,266.274z M302,267.274l3-1c2,0,3-1,3-2l2-3l1-5l-1-5l-2-3
		c-3.397-3.628-9.093-3.816-12.721-0.418c-1.013,0.949-1.793,2.118-2.279,3.418l-1,4v1c0,4,1,6,3,8S299,267.274,302,267.274z
		 M384,271.274h-4v-22l-1-3l-3-1l-4,1l-1,5v20h-5v-22c1-1,0-2-1-3l-2-1l-4,1l-1,4v21h-5v-30h5v3h1l2-3l4-1l3,1l2,3h1c1-2,3-4,6-4
		l5,2c2,2,2,4,2,6V271.274z M450,256.274l-2,7c0,2-1,3-3,5l-5,2c-3.551,1.3-7.449,1.3-11,0c-3.483-1.191-6.357-3.706-8-7l-1-7l1-7
		l4-5l4-3c5.482-1.991,11.612-0.841,16,3c2,2,3,3,3,5L450,256.274z M435,267.274l4-1l3-2l2-3l1-5l-1-5c-1.002-2.22-2.78-3.998-5-5
		c-2.551-1.113-5.449-1.113-8,0c-2.22,1.002-3.998,2.78-5,5l-1,5l1,5l2,3l3,2L435,267.274z M509,241.274h5v30h-5v-6h-1l-4,5l-5,1h-5
		l-3-3l-3-4v-23h4v17l2,7l6,2c3,0,5-1,7-3l2-8V241.274z M560,249.274l2,3l7,2l7,2c2,1,3,3,3,6c0.246,2.69-0.882,5.323-3,7l-4,2h-10
		l-5-3l-2-3l-1-4l4-1c1,2,1,4,3,5l6,2l5-1c2-1,2-2,2-4c0-1,0-3-2-3l-6-2l-8-2c-2-1-2-3-2-6c-0.468-2.721,0.707-5.462,3-7l3-1l4-1
		l5,1l4,2l2,3l1,3l-4,2l-2-5l-6-2l-2,1l-2,1l-1,1L560,249.274z M775,144.274H25v10h14l-1,42h33v-35l-1-7h1l5,14c6,9,12,20,15,28h38
		l-1-42h15l-9,42h38l1-17h19l1,17h41l-9-42h15v42h30v-31l-1-11h3l2,10l11,32h16l10-31l3-11h2v11l-1,31h34v-42h11v42h74v-28h-37v-9
		l36,1v-6h10v42h61l-1-17l1-18l-22,1v-8h28v42h74v-28h-37v-9l36,1v-6h19c5,3,11,5,21,6c13,2,15,5,15,10c0,4-2,6-8,6s-8-2-8-8v-2h-9
		l-22-1v7c0,18,9,25,42,25c31,0,42-9,42-28c0-6-1-11-3-15h19c5,3,12,5,21,6c13,2,15,5,15,10c0,4-1,6-8,6c-6,0-8-2-8-8v-2h-9l-21-1
		l-1,7c0,18,9,25,42,25c32,0,42-9,42-28c0-6-1-11-3-15h14V144.274z M79,95.274H38l1,39h57l-3-8L79,95.274z M98,124.274v10h30l1-39
		H97L98,124.274z M153,95.274l-8,39h33c1.098-8.369,2.431-16.706,4-25h1l3,15l1,10h36l-8-39H153z M286,95.274h-46v39h55
		C292.632,121.137,289.629,108.121,286,95.274z M300,124.274l-2,10h51v-39h-42L300,124.274z M360,95.274v39h73v-6l-36,1v-9h37
		c-0.276-8.331-0.276-16.669,0-25H360z M444,134.274h38l1-39h-40L444,134.274z M510,95.274v39h73v-6l-36,1v-9h37
		c-0.276-8.331-0.276-16.669,0-25H510z M632,93.274c-29,0-41,9-41,28c0,5,0,10,2,13h68c-4-2-10-3-17-4c-15-3-17-6-17-10s2-6,8-6
		c7,0,9,3,9,7v3c9.656-0.644,19.344-0.644,29,0l1-6C674,101.274,665,93.274,632,93.274z M743,123.274l19,1l1-6c0-17-9-25-41-25
		c-30,0-42,9-42,28l2,13h68c-4-2-10-3-17-4c-15-3-17-6-17-10s3-6,8-6c7,0,9,3,9,7v3L743,123.274z"/>
	<g>
		<path d="M227.096,38.64c1.784-3.218,6.056-5.031,12.463-5.031c8.688,0,13.194,3.306,13.194,8.951
			c0,5.646-4.827,9.069-13.194,9.069c-5.968,0-10.181-1.609-12.316-3.481l-0.234,0.088c0.059,1.287,0.059,2.37,0.059,3.569
			c0,1.346,0.029,2.662,0.029,4.212H223c0.088-4.651,0.088-9.859,0.088-13.925c0-3.364-0.029-6.641-0.059-8.074h4.038v1.697
			c0,0.556-0.03,1.521-0.059,2.896L227.096,38.64z M227.008,46.276c2.808,1.755,6.875,2.516,11.468,2.516
			c6.933,0,10.385-2.34,10.385-6.231c0-3.891-3.54-6.085-10.209-6.085c-6.349,0-11.644,2.165-11.644,6.611V46.276z"/>
		<path d="M275.359,51.98c-9.244,0-15.299-2.984-15.299-9.479c0-6.524,6.231-9.244,15.299-9.244c9.069,0,15.388,2.721,15.388,9.244
			S284.575,51.98,275.359,51.98z M275.359,36.066c-6.904,0-11.555,2.077-11.555,6.465c0,4.417,4.651,6.553,11.555,6.553
			c6.933,0,11.585-2.165,11.585-6.553C286.944,38.172,282.263,36.066,275.359,36.066z"/>
		<path d="M339.684,34.018c-2.692,4.183-7.782,13.252-10.064,17.172c-0.586,0-1.346-0.029-2.223-0.029
			c-1.024,0-1.902,0.029-2.282,0.029c-1.258-2.253-3.422-6.085-5.325-9.712c-0.877-1.726-1.521-3.16-2.018-4.3h-0.088
			c-0.468,1.141-1.112,2.633-2.048,4.359c-1.901,3.423-4.037,7.285-5.383,9.654c-0.409,0-1.316-0.029-2.047-0.029
			c-0.937,0-1.551,0-1.96,0.029c-2.429-4.183-7.08-12.813-9.976-17.172h4.592c0.673,1.316,3.891,7.05,5.734,10.356
			c0.966,1.726,1.551,2.779,2.019,3.686h0.029c0.527-0.966,1.2-2.223,2.136-3.978c2.019-3.803,4.242-7.87,5.12-10.064
			c0.585,0.029,1.756,0.029,2.457,0.029c0.644,0,1.376,0,1.902-0.029c0.907,2.106,3.364,6.904,5.178,10.151
			c1.053,1.814,1.726,3.013,2.223,3.95h0.088c0.439-0.907,0.994-2.048,2.048-3.92c1.755-3.306,4.827-8.601,5.441-10.18H339.684z"/>
		<path d="M373.729,45.222c0.088,3.774-2.37,6.758-14.013,6.758c-10.093,0-15.564-3.101-15.564-9.479
			c0-6.172,5.529-9.186,15.534-9.186c10.092,0,14.071,2.838,14.071,7.87c0,0.848-0.029,1.492-0.088,2.311
			c-3.013-0.058-7.636-0.029-14.949-0.029c-3.773,0-7.869,0-10.824-0.059c0.439,3.862,4.242,5.851,11.877,5.851
			c8.571,0,10.268-2.165,10.298-4.037c0.556,0.029,1.14,0.058,1.93,0.058C372.734,45.281,373.26,45.252,373.729,45.222z
			 M347.926,41.478c6.378,0.088,17.289,0.117,22.175-0.029c0.029-0.234,0.029-0.438,0.029-0.614c0-2.955-2.955-4.944-10.414-4.944
			C351.934,35.89,348.453,37.733,347.926,41.478z"/>
		<path d="M387.707,39.225c1.403-3.54,4.797-5.558,9.478-5.529c2.72,0,4.681,0.438,6.407,1.082
			c-0.204,0.848-0.468,2.545-0.527,3.452c-1.813-0.761-3.745-1.141-6.466-1.141c-4.797,0-8.835,2.311-8.835,6.845
			c0,2.692,0.03,5.822,0.088,7.255h-4.183c0.059-2.311,0.088-4.739,0.088-8.25c0-3.832-0.029-6.348-0.088-8.922h4.008
			c-0.029,1.609-0.058,3.188-0.117,5.178L387.707,39.225z"/>
		<path d="M439.394,45.222c0.088,3.774-2.369,6.758-14.013,6.758c-10.093,0-15.563-3.101-15.563-9.479
			c0-6.172,5.529-9.186,15.534-9.186c10.093,0,14.071,2.838,14.071,7.87c0,0.848-0.03,1.492-0.088,2.311
			c-3.013-0.058-7.636-0.029-14.949-0.029c-3.773,0-7.869,0-10.824-0.059c0.439,3.862,4.241,5.851,11.877,5.851
			c8.571,0,10.268-2.165,10.297-4.037c0.557,0.029,1.141,0.058,1.931,0.058C438.4,45.281,438.927,45.252,439.394,45.222z
			 M413.592,41.478c6.378,0.088,17.289,0.117,22.175-0.029c0.029-0.234,0.029-0.438,0.029-0.614c0-2.955-2.955-4.944-10.415-4.944
			C417.6,35.89,414.119,37.733,413.592,41.478z"/>
		<path d="M477.156,28.547c-0.088,6.992-0.059,10.736-0.059,16.031c0,2.486,0.03,5.178,0.059,6.611h-4.096
			c0.059-0.878,0.029-1.58,0.029-2.633c0.03-0.614,0.03-1.199,0.059-1.902l-0.117-0.029c-1.784,3.159-6.115,4.973-12.55,4.973
			c-8.6,0-13.047-3.335-13.047-8.952c0-5.646,4.768-9.039,13.076-9.039c5.998,0,10.298,1.521,12.434,3.335l0.204-0.088
			c-0.059-1.17-0.029-2.603-0.029-4.007c0-1.404,0-2.662-0.03-4.301H477.156z M473.177,38.933
			c-2.779-1.726-6.757-2.516-11.263-2.516c-7.079,0-10.59,2.34-10.59,6.231c0,3.891,3.599,6.115,10.415,6.085
			c6.231,0,11.438-2.165,11.438-6.641V38.933z"/>
		<path d="M514.68,38.581c1.784-3.16,6.115-4.973,12.55-4.973c8.601,0,13.047,3.306,13.047,8.951c0,5.646-4.797,9.04-13.076,9.04
			c-5.91,0-10.151-1.551-12.316-3.364l-0.322,0.088c0.029,0.439,0.029,0.848,0.029,1.287v1.58h-4.066
			c0.088-2.955,0.088-6.114,0.088-10.561c0-5.236-0.03-9.391-0.059-12.082h4.096c-0.059,1.814-0.059,3.277-0.059,5.441
			c0,1.551,0,2.867-0.058,4.563L514.68,38.581z M514.534,46.276c2.779,1.726,6.757,2.516,11.263,2.516
			c7.079,0,10.59-2.34,10.59-6.231c0-3.891-3.628-6.114-10.415-6.085c-6.231,0-11.438,2.165-11.438,6.611V46.276z"/>
		<path d="M579.033,33.989c-3.16,3.715-8.718,10.883-12.726,15.622c-4.535,5.324-6.289,6.699-11.73,6.699
			c-3.072,0-5.676-0.878-7.987-2.194c0.322-0.527,0.995-2.37,1.17-3.16c2.194,1.404,4.447,2.34,7.285,2.34
			c2.691,0,4.388-0.439,6.582-3.16l0.117-0.176c-0.731,0-1.433,0-2.165,0.029c-3.218-3.774-9.596-11.673-13.399-15.973h5.061
			c0.995,1.58,5.47,6.611,7.928,9.859c1.609,2.106,2.838,3.627,3.628,4.681c0.966-1.17,2.223-2.75,4.096-5.149
			c2.399-3.159,6.056-7.781,7.255-9.39L579.033,33.989z"/>
	</g>
</g>
</svg>
