<svg xmlns="http://www.w3.org/2000/svg" viewBox="0 0 512 512">
  <path d="M440 512H72a72 72 0 0 1-72-72V72A72 72 0 0 1 72 0h368a72 72 0 0 1 72 72v368a72 72 0 0 1-72 72" fill="#c8f53c"/>
  <path fill="#0a0a0b" d="M461 252.4H51v35h48.6c-.1 53.3-.4 112-.7 144.6h114c-.8-13.1-.8-78.2-1.7-122.2l-.8-22.3h3.5a460 460 0 0 0 17.2 46.9c18.6 33.8 39.3 71.8 49.9 97.6h132.2q-1.1-72.2-.9-144.5H461zM99.7 217.2h200a577 577 0 0 0-10.3-29c-17-38.9-43-90.4-48.6-108.2h-142c1.2 38.8 1 81 1 137.2m206.7 0h105.8c.1-59.1.6-112.5 1.7-137.2H302c1.3 23.7 2.6 63.4 3 100.6q.4 16.6 1.4 36.6"/>
</svg>
