<svg id="Layer_1" xmlns="http://www.w3.org/2000/svg" viewBox="0 0 289.1 228.8"><style>.st0,.st1{fill-rule:evenodd;clip-rule:evenodd;fill:#ede5ce}.st1{fill:#aa3423}.st2{fill:#ede5ce}.st3{fill:#fff}</style><path class="st0" d="M156.6 2.2c-6.6-2.9-17.5-2.9-24.2 0L12.1 54.3C5.4 57.1 0 65.4 0 72.7v83.4c0 7.2 5.4 15.5 12.1 18.4l120.4 52.1c6.6 2.9 17.5 2.9 24.2 0L277 174.5c6.6-2.9 12.1-11.2 12.1-18.4V72.7c0-7.2-5.4-15.5-12.1-18.4L156.6 2.2z"/><path class="st1" d="M157 8c-6.3-2.7-16.6-2.7-22.9 0L20.2 57.3C13.9 60 8.8 67.8 8.8 74.7v79c0 6.9 5.1 14.7 11.4 17.4l113.9 49.3c6.3 2.7 16.6 2.7 22.9 0l113.9-49.3c6.3-2.7 11.4-10.6 11.4-17.4v-79c0-6.9-5.1-14.7-11.4-17.4L157 8z"/><path class="st2" d="M145.5 12.5c3.4 0 6.6.5 8.8 1.5l113.9 49.3c3.9 1.7 7.5 7.1 7.5 11.4v79c0 4.3-3.6 9.7-7.5 11.4l-113.9 49.3c-2.2 1-5.4 1.5-8.8 1.5-3.4 0-6.6-.5-8.8-1.5L22.8 165c-3.9-1.7-7.5-7.1-7.5-11.4v-79c0-4.3 3.6-9.7 7.5-11.4L136.7 14c2.2-.9 5.4-1.5 8.8-1.5zm0-1.6c-3.6 0-7.1.6-9.5 1.6L22.2 61.8c-4.5 2-8.5 8-8.5 12.9v79c0 4.9 4 10.9 8.5 12.9L136 215.8c2.4 1 5.9 1.6 9.5 1.6 3.6 0 7.1-.6 9.5-1.6l113.9-49.3c4.5-2 8.5-8 8.5-12.9v-79c0-4.9-4-10.9-8.5-12.9L155 12.5c-2.4-1-5.9-1.6-9.5-1.6z"/><path class="st2" d="M81.3 115.6v-7.3h23.5v7.3c-1.9.6-3.1 1.5-3.7 2.9-.6 1.4-.9 4.2-.9 8.5v18.6c-.8-.1-1.4-.1-1.9-.1-2.4 0-6.6 1.1-12.4 3.3-4.2 1.6-7.7 2.4-10.5 2.4-7.6 0-13.8-4.5-18.5-13.5-4.7-9-7.1-19.5-7.1-31.5 0-12.9 2.5-23.9 7.5-33.2 5-9.3 11.1-13.9 18.5-13.9 6 0 11.3 3.4 15.8 10.1.8-2.9 1.3-6 1.4-9.2h4l.4 31h-4C91 76 86 68.4 78.6 68.4c-4.4 0-7.7 2.9-10 8.6-2.3 5.7-3.5 15.3-3.5 28.8 0 9.5.3 16.7 1 21.6.7 4.9 2 8.7 3.9 11.4 1.9 2.7 4.4 4.1 7.5 4.1 2.7 0 5-1 6.8-3.1 1.8-2.1 2.7-6.2 2.7-12.4v-3.3c.1-5.2-1.8-8-5.7-8.5z"/><path class="st2" d="M124.6 110.3v21c0 4.1.4 6.9 1.2 8.5.8 1.6 2.4 2.4 4.8 2.4h.9v7.3h-27v-7.3h1c2.5 0 4.1-.8 4.9-2.4.7-1.6 1.1-4.4 1.1-8.4V78.8c0-4.1-.4-6.9-1.2-8.5-.8-1.6-2.4-2.4-4.8-2.4h-1v-7.3l20.1-.1 4.5-.1c4.5 0 7.7.3 9.8.8 2.1.5 4.1 1.8 6.1 3.8 2 2 3.6 4.7 4.7 8.1 1.1 3.4 1.7 7.1 1.7 11.1 0 10.5-3.4 17.8-10.1 21.6 1.8 2 4.6 8.3 8.4 18.9 3 8.2 5.1 13.1 6.3 14.8 1.3 1.7 2.6 2.5 4.1 2.5v7.3h-15.7c-1.4-3-4.1-10.6-8-22.9-1.9-6.2-3.3-10.2-4.1-12-.8-1.8-1.6-2.9-2.4-3.4-.7-.4-2.5-.7-5.3-.7zm0-8c4.2.1 7-.4 8.4-1.3 1.5-1 2.6-2.7 3.4-5.3.8-2.5 1.3-6 1.3-10.4 0-6.2-.8-10.6-2.5-12.9-1.7-2.4-4.5-3.6-8.6-3.6-.5 0-1.2 0-2 .1v33.4z"/><path class="st2" d="M159.3 68v-7.3h26.5V68h-.8c-2.5 0-4.1.8-4.9 2.5-.8 1.6-1.1 4.4-1.1 8.4v52.5c0 4.1.4 6.9 1.2 8.5.8 1.6 2.4 2.4 4.8 2.4h.8v7.3h-26.5v-7.3c2.7 0 4.4-.7 5.3-2.2.9-1.4 1.3-4.3 1.3-8.7V78.8c0-4.2-.4-7.1-1.2-8.6-.8-1.5-2.6-2.2-5.4-2.2zm48.3.6h-4.2c-2.5 0-4.4.5-5.5 1.4-1.2 1-2.2 2.9-3 5.7-.8 2.9-1.3 6.2-1.5 10.2h-4.2V60.7h50.2V86h-4.2c-.8-6.8-1.9-11.4-3.3-13.8-1.4-2.4-3.7-3.6-6.8-3.6h-4.3v62.7c0 4.1.4 6.9 1.2 8.5.8 1.6 2.4 2.4 4.9 2.4h1.3v7.3h-27.7v-7.3h1.2c2.5 0 4.1-.8 4.9-2.4.8-1.6 1.1-4.4 1.1-8.4V68.6zm-69.2-48.2v7.1l6.2 3.6 6.2-3.6v-7.1l-6.2-3.6-6.2 3.6zm9 5.2c-.9 1.6-3 2.1-4.6 1.2-1.6-.9-2.1-3-1.2-4.6.9-1.6 3-2.1 4.6-1.2 1.6 1 2.1 3 1.2 4.6zm-9 173v7.1l6.2 3.6 6.2-3.6v-7.1l-6.2-3.6-6.2 3.6zm9 5.3c-.9 1.6-3 2.1-4.6 1.2-1.6-.9-2.1-3-1.2-4.6.9-1.6 3-2.1 4.6-1.2 1.6.9 2.1 3 1.2 4.6zM254.3 150v7.1l6.2 3.6 6.2-3.6V150l-6.2-3.6-6.2 3.6zm9.1 5.3c-.9 1.6-3 2.1-4.6 1.2-1.6-.9-2.1-3-1.2-4.6.9-1.6 3-2.1 4.6-1.2 1.5.9 2.1 3 1.2 4.6zm-9.1-86.5v7.1l6.2 3.6 6.2-3.6v-7.1l-6.2-3.6-6.2 3.6zm9.1 5.2c-.9 1.6-3 2.1-4.6 1.2-1.6-.9-2.1-3-1.2-4.6.9-1.6 3-2.1 4.6-1.2 1.5 1 2.1 3 1.2 4.6zm-240 76.2v7.1l6.2 3.6 6.2-3.6v-7.1l-6.2-3.6-6.2 3.6zm9.1 5.3c-.9 1.6-3 2.1-4.6 1.2-1.6-.9-2.1-3-1.2-4.6.9-1.6 3-2.1 4.6-1.2 1.6.9 2.1 3 1.2 4.6zM23.4 69v7.1l6.2 3.6 6.2-3.6V69l-6.2-3.6-6.2 3.6zm9.1 5.2c-.9 1.6-3 2.1-4.6 1.2-1.6-.9-2.1-3-1.2-4.6.9-1.6 3-2.1 4.6-1.2 1.6 1 2.1 3 1.2 4.6zm37.6 88c0 .3-.1.7-.2 1-.2.4-.4.7-.7 1.1-.3.4-.8.7-1.3.9-.5.2-1.1.3-1.8.3-.5 0-1 0-1.5-.2-.4-.1-.8-.3-1.2-.5-.4-.2-.7-.5-1-.8-.3-.3-.5-.7-.7-1.1-.2-.4-.3-.8-.4-1.3-.1-.4-.1-.9-.1-1.4 0-.8.1-1.5.4-2.2.2-.6.6-1.2 1-1.7s1-.8 1.6-1c.6-.2 1.2-.4 1.9-.4.8 0 1.5.2 2.2.5.6.3 1.1.7 1.5 1.2.3.5.5.9.5 1.4 0 .2-.1.4-.2.6-.2.2-.4.3-.6.3-.3 0-.5-.1-.6-.2-.1-.1-.3-.3-.4-.6-.3-.5-.6-.9-.9-1.1-.4-.2-.8-.4-1.3-.4-.8 0-1.5.3-2 1-.5.6-.7 1.5-.7 2.7 0 .8.1 1.4.3 2 .2.5.5.9.9 1.2.4.3.9.4 1.4.4.6 0 1.1-.1 1.5-.4.4-.3.7-.7.9-1.3.1-.3.2-.5.3-.7.1-.2.3-.3.6-.3.2 0 .5.1.6.3-.1.2 0 .4 0 .7zm18.7-1.1h-.7v3.2c0 .4-.1.7-.3.9-.2.2-.4.3-.7.3-.3 0-.6-.1-.8-.3-.2-.2-.3-.5-.3-.9v-7.8c0-.4.1-.8.3-1 .2-.2.5-.3 1-.3h3.3c.5 0 .9 0 1.2.1.3 0 .6.1.9.2.3.1.6.3.8.6.2.2.4.5.6.9.1.3.2.7.2 1 0 .8-.2 1.4-.6 1.8-.4.5-1.1.8-1.9 1 .4.2.7.5 1 .9l.9 1.2c.3.4.5.8.6 1.2.1.3.2.6.2.7 0 .1 0 .3-.1.4l-.3.3c-.1.1-.3.1-.5.1s-.4-.1-.6-.2c-.2-.1-.3-.2-.4-.4-.1-.2-.3-.4-.5-.7l-.8-1.4c-.3-.5-.6-.9-.8-1.1-.2-.3-.5-.4-.7-.5-.3-.2-.6-.2-1-.2zm1.2-4.3h-1.9v2.8h1.8c.5 0 .9 0 1.2-.1.3-.1.6-.2.8-.4.2-.2.3-.5.3-.8 0-.3-.1-.5-.2-.7-.1-.2-.3-.4-.6-.5-.2-.2-.7-.3-1.4-.3zm27 .1h-4.6v2.5h4.2c.3 0 .5.1.7.2.2.1.2.3.2.6 0 .2-.1.4-.2.6-.2.1-.4.2-.7.2h-4.2v2.9h4.8c.3 0 .6.1.7.2.2.1.2.3.2.6 0 .2-.1.4-.2.6-.2.1-.4.2-.7.2h-5.6c-.4 0-.8-.1-1-.3-.2-.2-.3-.5-.3-1v-7.6c0-.3 0-.5.1-.7.1-.2.2-.3.4-.4.2-.1.4-.1.7-.1h5.4c.3 0 .6.1.7.2.2.1.2.3.2.6 0 .2-.1.4-.2.6 0 0-.3.1-.6.1zm23.3 7.3l-.5-1.3h-4.1l-.5 1.3c-.2.5-.3.8-.5 1-.1.2-.4.3-.7.3-.3 0-.5-.1-.7-.3-.2-.2-.3-.4-.3-.6 0-.1 0-.3.1-.4 0-.1.1-.4.2-.6l2.6-6.6c.1-.2.2-.4.3-.7.1-.3.2-.5.3-.7.1-.2.3-.3.5-.4.2-.1.4-.2.7-.2.3 0 .5.1.7.2.2.1.3.2.5.4.1.2.2.4.3.5.1.2.2.5.3.8l2.6 6.5c.2.5.3.9.3 1.1 0 .2-.1.4-.3.6-.2.2-.4.3-.7.3-.2 0-.3 0-.4-.1-.1-.1-.2-.1-.3-.2-.1-.1-.2-.3-.3-.5.1 0 0-.2-.1-.4zm-4-2.8h3l-1.5-4.2-1.5 4.2zm27.1-4.4h-2.2v7.3c0 .4-.1.7-.3.9-.2.2-.4.3-.7.3-.3 0-.5-.1-.7-.3-.2-.2-.3-.5-.3-.9V157H157c-.3 0-.6-.1-.8-.2-.2-.2-.3-.4-.3-.6 0-.3.1-.5.3-.6.2-.2.4-.2.8-.2h6.5c.4 0 .6.1.8.2.2.2.3.4.3.6s-.1.5-.3.6c-.3.1-.5.2-.9.2zm16.5 7.3v-8c0-.4.1-.7.3-.9.2-.2.4-.3.7-.3.3 0 .6.1.7.3.2.2.3.5.3.9v8c0 .4-.1.7-.3.9-.2.2-.4.3-.7.3-.3 0-.5-.1-.7-.3-.2-.2-.3-.5-.3-.9zm19.9-7.8l2.3 6.8 2.3-6.8c.1-.4.2-.6.3-.7.1-.1.2-.3.3-.4.1-.1.3-.2.6-.2.2 0 .3 0 .5.1.1.1.3.2.4.3.1.1.1.3.1.4v.3c0 .1-.1.2-.1.3 0 .1-.1.2-.1.3l-2.4 6.6c-.1.3-.2.5-.3.7l-.3.6c-.1.2-.3.3-.5.4-.2.1-.4.2-.7.2-.3 0-.5-.1-.7-.2-.2-.1-.3-.2-.5-.4l-.3-.6c-.1-.2-.2-.5-.3-.7L198 157c0-.1-.1-.2-.1-.4 0-.1-.1-.2-.1-.4v-.3c0-.2.1-.4.3-.6.2-.2.4-.3.7-.3.4 0 .6.1.7.3 0 .3.2.7.3 1.2zm29 .4h-4.6v2.5h4.2c.3 0 .5.1.7.2.2.1.2.3.2.6 0 .2-.1.4-.2.6-.2.1-.4.2-.7.2h-4.2v2.9h4.8c.3 0 .6.1.7.2.2.1.2.3.2.6 0 .2-.1.4-.2.6-.2.1-.4.2-.7.2h-5.6c-.4 0-.8-.1-1-.3-.2-.2-.3-.5-.3-1v-7.6c0-.3 0-.5.1-.7.1-.2.2-.3.4-.4.2-.1.4-.1.7-.1h5.4c.3 0 .6.1.7.2.2.1.2.3.2.6 0 .2-.1.4-.2.6 0 0-.3.1-.6.1z"/></svg>